<svg xmlns="http://www.w3.org/2000/svg" xmlns:xlink="http://www.w3.org/1999/xlink" viewBox="0 0 1216.34 172.41"><defs><style>.cls-1{fill:none;}.cls-2{opacity:0.6;}.cls-3{clip-path:url(#clip-path);}</style><clipPath id="clip-path" transform="translate(0 -33.68)"><rect class="cls-1" x="232.79" width="752.44" height="235"/></clipPath></defs><title>Mono Logo</title><g id="Layer_2" data-name="Layer 2"><g id="Layer_1-2" data-name="Layer 1"><g class="cls-2"><g class="cls-3"><path d="M387.5,34c1.4,0,2.64-.06,3.87,0,.3,0,.76.59.79.94.51,5.67,1,11.35,1.44,17,.83,9.84,1.66,19.67,2.7,29.51L400.1,34c1.87,0,3.6,0,5.33,0,.29,0,.77.58.8.92.51,5.58,1,11.17,1.43,16.75.84,10,1.69,20,2.8,30.08l3.72-47.71h4.53c-.11,1.36-.2,2.7-.34,4q-2.45,24.27-4.91,48.53c-.06.64-.09,1.16-1,1.13-1.79,0-3.58,0-5.55,0l-3.69-47.11H403l-3.68,47h-6.42Z" transform="translate(0 -33.68)"/><path d="M449,87.71h-4.13V34c2.13,0,4.23,0,6.33,0,.28,0,.73.52.77.84,1.06,7.87,2.06,15.76,3.09,23.63.92,7.05,1.84,14.1,3,21.14V34.08h4.16v53.6h-6.8L449.3,40.31l-.25,0Z" transform="translate(0 -33.68)"/><path d="M251.32,87.65V34.07c.42,0,.82-.1,1.21-.09,3.53.06,7.08,0,10.6.24,3.08.22,4.59,1.68,4.71,4.73.21,5.32.25,10.65.09,16-.08,3-1.26,4-4.21,4.55l-1,.17c.18.12.24.19.32.2,4.29.6,5.25,1.68,5.24,6,0,5.47.06,10.94-.12,16.4-.12,3.56-1.52,5.11-5,5.35C259.24,87.85,255.34,87.65,251.32,87.65Zm5-4.08c1.1,0,2.11,0,3.11,0,3.05-.1,3.94-1,4-4,0-3.63,0-7.26,0-10.89,0-1.29,0-2.58-.06-3.86a2.57,2.57,0,0,0-2.43-2.71c-1.49-.13-3,0-4.59,0Zm0-25.78c1.26,0,2.4,0,3.54,0,2.06-.06,3.2-.95,3.25-3,.11-4.5.08-9,0-13.51a2.55,2.55,0,0,0-2.16-2.8c-1.51-.22-3-.26-4.64-.38Z" transform="translate(0 -33.68)"/><path d="M92.75,87.66V34.24c4.15,0,8.23-.19,12.29.07,2.64.16,4.09,1.81,4.18,4.48.18,5.32.25,10.65.12,16-.08,3.13-1.24,4.15-4.33,4.73l-.87.14c.14.13.2.21.26.22,4.14.46,5.25,1.67,5.25,5.84,0,5.51.05,11-.11,16.54-.1,3.56-1.58,5.17-5.14,5.39C100.56,87.85,96.7,87.66,92.75,87.66Zm5-25.67V83.54c1.25,0,2.39.05,3.53,0,2.54-.14,3.45-1.06,3.5-3.62s0-5.15,0-7.72c0-2.3,0-4.6,0-6.89s-.93-3.14-3-3.29C100.41,61.92,99.13,62,97.71,62Zm0-4.21c1.25,0,2.35,0,3.45,0,2.14-.06,3.27-.93,3.32-3,.12-4.45.08-8.91,0-13.37a2.63,2.63,0,0,0-2.23-2.89c-1.47-.22-3-.24-4.55-.35Z" transform="translate(0 -33.68)"/><path d="M139.06,87.68V33.84c4.19.14,8.32.1,12.41.48,2.73.26,4,1.89,4.1,4.69.13,5.14.2,10.29.07,15.43-.09,3.55-1.08,4.46-4.55,5.08l-.64.15c5,1.11,5.46,1.72,5.46,6.8s0,10.39-.06,15.58c-.07,3.67-1.6,5.38-5.25,5.58S143,87.68,139.06,87.68ZM144,83.51c1.45,0,2.74.09,4,0,2.06-.18,2.92-1,3-3.06.11-3.72.07-7.44.07-11.16q0-2.41-.11-4.82a2.35,2.35,0,0,0-2.15-2.34,39.23,39.23,0,0,0-4.81,0ZM144,38.16V57.78h2.46c3.41,0,4.32-.89,4.34-4.32,0-3.72,0-7.45,0-11.17,0-.32,0-.64,0-1-.19-1.94-.88-2.73-2.8-3C146.73,38.21,145.44,38.22,144,38.16Z" transform="translate(0 -33.68)"/><path d="M0,34.24c4.15,0,8.24-.21,12.29.07,2.8.19,4.18,2,4.23,4.88q.13,7.51,0,15c0,3.51-1.09,4.65-4.51,5.3l-.62.13c.15.11.2.19.26.19,4,.49,5.13,1.71,5.14,5.8q0,7.51,0,15c0,.41,0,.83,0,1.24-.12,3.66-1.55,5.46-5.16,5.7-3.83.25-7.7.06-11.65.06ZM4.77,83.49c1.55,0,2.93.11,4.29,0,1.93-.19,2.79-1.1,2.81-2.93q.07-7.86,0-15.72A2.58,2.58,0,0,0,9.23,62c-1.09-.11-2.2,0-3.3-.12-.91-.07-1.18.3-1.18,1.19,0,4.32,0,8.64,0,13C4.77,78.49,4.77,80.92,4.77,83.49Zm0-25.71c1.36,0,2.55,0,3.73,0,2-.07,3-.94,3.12-2.92.12-1.5.11-3,.1-4.54,0-3,0-6.05-.08-9.08-.07-1.89-.81-2.61-2.68-2.87-1-.14-2-.09-3-.17s-1.2.26-1.19,1.17c.05,2.52,0,5,0,7.57C4.77,50.46,4.77,54,4.77,57.78Z" transform="translate(0 -33.68)"/><path d="M308.78,59.74c1,.18,1.73.27,2.39.42A3.74,3.74,0,0,1,314.44,64c.09,4.78.07,9.56.09,14.33,0,3.07,0,6.15,0,9.32h-4.87V86q0-9.92,0-19.85c0-3.37-.85-4.22-4.25-4.25h-2.85V87.64h-4.89V34c1.05,0,2.09,0,3.13,0,2.8,0,5.61,0,8.4.21,3.53.32,4.89,1.66,5,5.16.18,5.09.19,10.2,0,15.29-.1,3.36-1.13,4.28-4.45,4.89Zm-6.18-2c1.18,0,2.27,0,3.36,0,2.23,0,3.33-.9,3.39-3.11.12-4.5.07-9,0-13.51a2.5,2.5,0,0,0-2.27-2.69c-1.47-.2-3-.22-4.51-.32Z" transform="translate(0 -33.68)"/><path d="M344,60.9c0-6.25-.08-12.5.06-18.75a11,11,0,0,1,1.22-5c2-3.63,5.67-3.59,9.23-3.29a6.45,6.45,0,0,1,6.34,5.49,16.93,16.93,0,0,1,.45,3.68c0,11.9.08,23.81,0,35.71-.05,8.12-4.05,9.88-10.89,9.13-4.14-.45-6.29-3.18-6.35-7.81-.1-6.39,0-12.78,0-19.16Zm12.38,0c0-5.83,0-11.67,0-17.5a13.65,13.65,0,0,0-.2-2.6c-.49-2.46-1.51-3.18-4.07-3-1.94.11-2.94,1.2-3.14,3.47,0,.41,0,.83,0,1.24q0,18.39,0,36.79A10.32,10.32,0,0,0,349,81c.37,2.08,1.41,3,3.45,3s3.23-.8,3.65-2.93a13.74,13.74,0,0,0,.24-2.6C356.36,72.66,356.36,66.78,356.36,60.9Z" transform="translate(0 -33.68)"/><path d="M46.32,60.88c0-6.43,0-12.86,0-19.29a7.6,7.6,0,0,1,2.55-6.15c3.56-3,11.29-2.07,13.3,1.66a9.89,9.89,0,0,1,1.19,4.45q.13,19.29,0,38.58c0,5-2.76,7.72-7.76,7.86a15.52,15.52,0,0,1-3.16-.12c-3.95-.71-6.09-3.25-6.13-7.42-.07-6.52,0-13,0-19.56Zm12.2.07q0-9,0-18.07c0-.51,0-1,0-1.52-.17-2.67-1.32-3.71-4-3.61a2.77,2.77,0,0,0-3.05,2.4,9.73,9.73,0,0,0-.25,2.32q0,18.34,0,36.68a13.28,13.28,0,0,0,.1,1.93,3.11,3.11,0,0,0,3.35,3c2.28.09,3.54-1,3.79-3.25a17.88,17.88,0,0,0,.07-1.93Q58.53,69.92,58.52,61Z" transform="translate(0 -33.68)"/><path d="M190.22,87.68h-4.78V34.09h4.78Z" transform="translate(0 -33.68)"/><path d="M764.84,152c1.4,0,2.64-.06,3.87,0,.3,0,.76.59.79.94.51,5.67,1,11.35,1.44,17,.83,9.84,1.66,19.67,2.7,29.51l3.8-47.52c1.87,0,3.6,0,5.33,0,.29,0,.77.58.8.92.51,5.58,1,11.17,1.43,16.75.84,10,1.69,20,2.8,30.08l3.72-47.71H796c-.11,1.36-.2,2.7-.34,4q-2.45,24.27-4.91,48.53c-.06.64-.09,1.16-1,1.13-1.79,0-3.58,0-5.55,0l-3.69-47.11h-.2l-3.68,47h-6.42Z" transform="translate(0 -33.68)"/><path d="M826.38,205.76h-4.13V152c2.13,0,4.23,0,6.33,0,.28,0,.73.52.77.84,1.06,7.87,2.06,15.76,3.09,23.63.92,7.05,1.84,14.1,3,21.14V152.13h4.16v53.6h-6.8l-6.14-47.37-.25,0Z" transform="translate(0 -33.68)"/><path d="M628.65,205.7V152.12c.42,0,.82-.1,1.21-.09,3.53.06,7.08,0,10.6.24,3.08.22,4.59,1.68,4.71,4.73.21,5.32.25,10.65.09,16-.08,3-1.26,4-4.21,4.55l-1,.17c.18.12.24.19.32.2,4.29.6,5.25,1.68,5.24,6,0,5.47.06,10.94-.12,16.4-.12,3.56-1.52,5.11-5,5.35C636.58,205.9,632.67,205.7,628.65,205.7Zm5-4.08c1.1,0,2.11,0,3.11,0,3.05-.1,3.94-1,4-4,0-3.63,0-7.26,0-10.89,0-1.29,0-2.58-.06-3.86a2.57,2.57,0,0,0-2.43-2.71c-1.49-.13-3,0-4.59,0Zm0-25.78c1.26,0,2.4,0,3.54,0,2.06-.06,3.2-.95,3.25-3,.11-4.5.08-9,0-13.51a2.55,2.55,0,0,0-2.16-2.8c-1.51-.22-3-.26-4.64-.38Z" transform="translate(0 -33.68)"/><path d="M470.09,205.71V152.29c4.15,0,8.23-.19,12.29.07,2.64.16,4.09,1.81,4.18,4.48.18,5.32.25,10.65.12,16-.08,3.13-1.24,4.15-4.33,4.73l-.87.14c.14.13.2.21.26.22,4.14.46,5.25,1.67,5.25,5.84,0,5.51.05,11-.11,16.54-.1,3.56-1.58,5.17-5.14,5.39C477.89,205.9,474,205.71,470.09,205.71ZM475,180v21.55c1.25,0,2.39.05,3.53,0,2.54-.14,3.45-1.06,3.5-3.62s0-5.15,0-7.72c0-2.3,0-4.6,0-6.89s-.93-3.14-3-3.29C477.75,180,476.46,180,475,180Zm0-4.21c1.25,0,2.35,0,3.45,0,2.14-.06,3.27-.93,3.32-3,.12-4.45.08-8.91,0-13.37a2.63,2.63,0,0,0-2.23-2.89c-1.47-.22-3-.24-4.55-.35Z" transform="translate(0 -33.68)"/><path d="M516.4,205.73V151.89c4.19.14,8.32.1,12.41.48,2.73.26,4,1.89,4.1,4.69.13,5.14.2,10.29.07,15.43-.09,3.55-1.08,4.46-4.55,5.08l-.64.15c5,1.11,5.46,1.72,5.46,6.8s0,10.39-.06,15.58c-.07,3.67-1.6,5.38-5.25,5.58S520.32,205.73,516.4,205.73Zm4.91-4.17c1.45,0,2.74.09,4,0,2.06-.18,2.92-1,3-3.06.11-3.72.07-7.44.07-11.16q0-2.41-.11-4.82a2.35,2.35,0,0,0-2.15-2.34,39.23,39.23,0,0,0-4.81,0Zm.06-45.35v19.62h2.46c3.41,0,4.32-.89,4.34-4.32,0-3.72,0-7.45,0-11.17,0-.32,0-.64,0-1-.19-1.94-.88-2.73-2.8-3C524.06,156.26,522.77,156.28,521.36,156.21Z" transform="translate(0 -33.68)"/><path d="M377.34,152.3c4.15,0,8.24-.21,12.29.07,2.8.19,4.18,2,4.23,4.88q.13,7.51,0,15c0,3.51-1.09,4.65-4.51,5.3l-.62.13c.15.11.2.19.26.19,4,.49,5.13,1.71,5.14,5.8q0,7.51,0,15c0,.41,0,.83,0,1.24-.12,3.66-1.55,5.46-5.16,5.7-3.83.25-7.7.06-11.65.06Zm4.77,49.24c1.55,0,2.93.11,4.29,0,1.93-.19,2.79-1.1,2.81-2.93q.07-7.86,0-15.72a2.58,2.58,0,0,0-2.64-2.78c-1.09-.11-2.2,0-3.3-.12-.91-.07-1.18.3-1.18,1.19,0,4.32,0,8.64,0,13C382.1,196.55,382.1,199,382.1,201.54Zm0-25.71c1.36,0,2.55,0,3.73,0,2-.07,3-.94,3.12-2.92.12-1.5.11-3,.1-4.54,0-3,0-6.05-.08-9.08-.07-1.89-.81-2.61-2.68-2.87-1-.14-2-.09-3-.17s-1.2.26-1.19,1.17c.05,2.52,0,5,0,7.57C382.1,168.51,382.1,172,382.1,175.83Z" transform="translate(0 -33.68)"/><path d="M686.12,177.79c1,.18,1.73.27,2.39.42a3.74,3.74,0,0,1,3.27,3.84c.09,4.78.07,9.56.09,14.33,0,3.07,0,6.15,0,9.32H687v-1.64q0-9.92,0-19.85c0-3.37-.85-4.22-4.25-4.25h-2.85v25.71H675V152c1.05,0,2.09,0,3.13,0,2.8,0,5.61,0,8.4.21,3.53.32,4.89,1.66,5,5.16.18,5.09.19,10.2,0,15.29-.1,3.36-1.13,4.28-4.45,4.89Zm-6.18-2c1.18,0,2.27,0,3.36,0,2.23,0,3.33-.9,3.39-3.11.12-4.5.07-9,0-13.51a2.5,2.5,0,0,0-2.27-2.69c-1.47-.2-3-.22-4.51-.32Z" transform="translate(0 -33.68)"/><path d="M721.31,179c0-6.25-.08-12.5.06-18.75a11,11,0,0,1,1.22-5c2-3.63,5.67-3.59,9.23-3.29a6.45,6.45,0,0,1,6.34,5.49,16.93,16.93,0,0,1,.45,3.68c0,11.9.08,23.81,0,35.71-.05,8.12-4.05,9.88-10.89,9.13-4.14-.45-6.29-3.18-6.35-7.81-.1-6.39,0-12.78,0-19.16Zm12.38,0c0-5.83,0-11.67,0-17.5a13.65,13.65,0,0,0-.2-2.6c-.49-2.46-1.51-3.18-4.07-3-1.94.11-2.94,1.2-3.14,3.47,0,.41,0,.83,0,1.24q0,18.39,0,36.79a10.32,10.32,0,0,0,.1,1.78c.37,2.08,1.41,3,3.45,3s3.23-.8,3.65-2.93a13.74,13.74,0,0,0,.24-2.6C733.7,190.71,733.69,184.83,733.69,179Z" transform="translate(0 -33.68)"/><path d="M423.65,178.93c0-6.43,0-12.86,0-19.29a7.6,7.6,0,0,1,2.55-6.15c3.56-3,11.29-2.07,13.3,1.66a9.89,9.89,0,0,1,1.19,4.45q.13,19.29,0,38.58c0,5-2.76,7.72-7.76,7.86a15.52,15.52,0,0,1-3.16-.12c-3.95-.71-6.09-3.25-6.13-7.42-.07-6.52,0-13,0-19.56Zm12.2.07q0-9,0-18.07c0-.51,0-1,0-1.52-.17-2.67-1.32-3.71-4-3.61a2.77,2.77,0,0,0-3.05,2.4,9.73,9.73,0,0,0-.25,2.32q0,18.34,0,36.68a13.28,13.28,0,0,0,.1,1.93,3.11,3.11,0,0,0,3.35,3c2.28.09,3.54-1,3.79-3.25a17.88,17.88,0,0,0,.07-1.93Q435.86,188,435.86,179Z" transform="translate(0 -33.68)"/><path d="M567.55,205.74h-4.78v-53.6h4.78Z" transform="translate(0 -33.68)"/><path d="M1141.6,34c1.4,0,2.64-.06,3.87,0,.3,0,.76.59.79.94.51,5.67,1,11.35,1.44,17,.83,9.84,1.66,19.67,2.7,29.51l3.8-47.52c1.87,0,3.6,0,5.33,0,.29,0,.77.58.8.92.51,5.58,1,11.17,1.43,16.75.84,10,1.69,20,2.8,30.08l3.72-47.71h4.53c-.11,1.36-.2,2.7-.34,4q-2.45,24.27-4.91,48.53c-.06.64-.09,1.16-1,1.13-1.79,0-3.58,0-5.55,0l-3.69-47.11h-.2l-3.68,47H1147Z" transform="translate(0 -33.68)"/><path d="M1203.14,87.71H1199V34c2.13,0,4.23,0,6.33,0,.28,0,.73.52.77.84,1.06,7.87,2.06,15.76,3.09,23.63.92,7.05,1.84,14.1,3,21.14V34.08h4.16v53.6h-6.8l-6.14-47.37-.25,0Z" transform="translate(0 -33.68)"/><path d="M1005.41,87.65V34.07c.42,0,.82-.1,1.21-.09,3.53.06,7.08,0,10.6.24,3.08.22,4.59,1.68,4.71,4.73.21,5.32.25,10.65.09,16-.08,3-1.26,4-4.21,4.55l-1,.17c.18.12.24.19.32.2,4.29.6,5.25,1.68,5.24,6,0,5.47.06,10.94-.12,16.4-.12,3.56-1.52,5.11-5,5.35C1013.34,87.85,1009.43,87.65,1005.41,87.65Zm5-4.08c1.1,0,2.11,0,3.11,0,3.05-.1,3.94-1,4-4,0-3.63,0-7.26,0-10.89,0-1.29,0-2.58-.06-3.86a2.57,2.57,0,0,0-2.43-2.71c-1.49-.13-3,0-4.59,0Zm0-25.78c1.26,0,2.4,0,3.54,0,2.06-.06,3.2-.95,3.25-3,.11-4.5.08-9,0-13.51a2.55,2.55,0,0,0-2.16-2.8c-1.51-.22-3-.26-4.64-.38Z" transform="translate(0 -33.68)"/><path d="M846.85,87.66V34.24c4.15,0,8.23-.19,12.29.07,2.64.16,4.09,1.81,4.18,4.48.18,5.32.25,10.65.12,16-.08,3.13-1.24,4.15-4.33,4.73l-.87.14c.14.13.2.21.26.22,4.14.46,5.25,1.67,5.25,5.84,0,5.51.05,11-.11,16.54-.1,3.56-1.58,5.17-5.14,5.39C854.65,87.85,850.79,87.66,846.85,87.66Zm5-25.67V83.54c1.25,0,2.39.05,3.53,0,2.54-.14,3.45-1.06,3.5-3.62s0-5.15,0-7.72c0-2.3,0-4.6,0-6.89s-.93-3.14-3-3.29C854.51,61.92,853.22,62,851.81,62Zm0-4.21c1.25,0,2.35,0,3.45,0,2.14-.06,3.27-.93,3.32-3,.12-4.45.08-8.91,0-13.37a2.63,2.63,0,0,0-2.23-2.89c-1.47-.22-3-.24-4.55-.35Z" transform="translate(0 -33.68)"/><path d="M893.16,87.68V33.84c4.19.14,8.32.1,12.41.48,2.73.26,4,1.89,4.1,4.69.13,5.14.2,10.29.07,15.43-.09,3.55-1.08,4.46-4.55,5.08l-.64.15c5,1.11,5.46,1.72,5.46,6.8s0,10.39-.06,15.58c-.07,3.67-1.6,5.38-5.25,5.58S897.08,87.68,893.16,87.68Zm4.91-4.17c1.45,0,2.74.09,4,0,2.06-.18,2.92-1,3-3.06.11-3.72.07-7.44.07-11.16q0-2.41-.11-4.82a2.35,2.35,0,0,0-2.15-2.34,39.23,39.23,0,0,0-4.81,0Zm.06-45.35V57.78h2.46c3.41,0,4.32-.89,4.34-4.32,0-3.72,0-7.45,0-11.17,0-.32,0-.64,0-1-.19-1.94-.88-2.73-2.8-3C900.82,38.21,899.53,38.22,898.12,38.16Z" transform="translate(0 -33.68)"/><path d="M754.1,34.24c4.15,0,8.24-.21,12.29.07,2.8.19,4.18,2,4.23,4.88q.13,7.51,0,15c0,3.51-1.09,4.65-4.51,5.3l-.62.13c.15.11.2.19.26.19,4,.49,5.13,1.71,5.14,5.8q0,7.51,0,15c0,.41,0,.83,0,1.24-.12,3.66-1.55,5.46-5.16,5.7-3.83.25-7.7.06-11.65.06Zm4.77,49.24c1.55,0,2.93.11,4.29,0,1.93-.19,2.79-1.1,2.81-2.93q.07-7.86,0-15.72A2.58,2.58,0,0,0,763.33,62c-1.09-.11-2.2,0-3.3-.12-.91-.07-1.18.3-1.18,1.19,0,4.32,0,8.64,0,13C758.86,78.49,758.86,80.92,758.86,83.49Zm0-25.71c1.36,0,2.55,0,3.73,0,2-.07,3-.94,3.12-2.92.12-1.5.11-3,.1-4.54,0-3,0-6.05-.08-9.08-.07-1.89-.81-2.61-2.68-2.87-1-.14-2-.09-3-.17s-1.2.26-1.19,1.17c.05,2.52,0,5,0,7.57C758.86,50.46,758.86,54,758.86,57.78Z" transform="translate(0 -33.68)"/><path d="M1062.88,59.74c1,.18,1.73.27,2.39.42a3.74,3.74,0,0,1,3.27,3.84c.09,4.78.07,9.56.09,14.33,0,3.07,0,6.15,0,9.32h-4.87V86q0-9.92,0-19.85c0-3.37-.85-4.22-4.25-4.25h-2.85V87.64h-4.89V34c1.05,0,2.09,0,3.13,0,2.8,0,5.61,0,8.4.21,3.53.32,4.89,1.66,5,5.16.18,5.09.19,10.2,0,15.29-.1,3.36-1.13,4.28-4.45,4.89Zm-6.18-2c1.18,0,2.27,0,3.36,0,2.23,0,3.33-.9,3.39-3.11.12-4.5.07-9,0-13.51a2.5,2.5,0,0,0-2.27-2.69c-1.47-.2-3-.22-4.51-.32Z" transform="translate(0 -33.68)"/><path d="M1098.07,60.9c0-6.25-.08-12.5.06-18.75a11,11,0,0,1,1.22-5c2-3.63,5.67-3.59,9.23-3.29a6.45,6.45,0,0,1,6.34,5.49,16.93,16.93,0,0,1,.45,3.68c0,11.9.08,23.81,0,35.71-.05,8.12-4.05,9.88-10.89,9.13-4.14-.45-6.29-3.18-6.35-7.81-.1-6.39,0-12.78,0-19.16Zm12.38,0c0-5.83,0-11.67,0-17.5a13.65,13.65,0,0,0-.2-2.6c-.49-2.46-1.51-3.18-4.07-3-1.94.11-2.94,1.2-3.14,3.47,0,.41,0,.83,0,1.24q0,18.39,0,36.79a10.32,10.32,0,0,0,.1,1.78c.37,2.08,1.41,3,3.45,3s3.23-.8,3.65-2.93a13.74,13.74,0,0,0,.24-2.6C1110.46,72.66,1110.45,66.78,1110.45,60.9Z" transform="translate(0 -33.68)"/><path d="M800.42,60.88c0-6.43,0-12.86,0-19.29A7.6,7.6,0,0,1,803,35.44c3.56-3,11.29-2.07,13.3,1.66a9.89,9.89,0,0,1,1.19,4.45q.13,19.29,0,38.58c0,5-2.76,7.72-7.76,7.86a15.52,15.52,0,0,1-3.16-.12c-3.95-.71-6.09-3.25-6.13-7.42-.07-6.52,0-13,0-19.56Zm12.2.07q0-9,0-18.07c0-.51,0-1,0-1.52-.17-2.67-1.32-3.71-4-3.61a2.77,2.77,0,0,0-3.05,2.4,9.73,9.73,0,0,0-.25,2.32q0,18.34,0,36.68a13.28,13.28,0,0,0,.1,1.93,3.11,3.11,0,0,0,3.35,3c2.28.09,3.54-1,3.79-3.25a17.88,17.88,0,0,0,.07-1.93Q812.62,69.92,812.62,61Z" transform="translate(0 -33.68)"/><path d="M944.31,87.68h-4.78V34.09h4.78Z" transform="translate(0 -33.68)"/></g></g></g></g></svg>