<svg id="Layer_1" data-name="Layer 1" xmlns="http://www.w3.org/2000/svg" viewBox="0 0 500 165.63"><defs><style>.cls-1{opacity:0.2;}</style></defs><title>mono</title><g class="cls-1"><path d="M131.81,20.74c1.11,0,2.09,0,3.06,0,.24,0,.6.47.62.75.41,4.49.77,9,1.14,13.48.66,7.79,1.32,15.57,2.14,23.36l3-37.62c1.48,0,2.85,0,4.22,0,.23,0,.61.46.63.73.4,4.42.76,8.84,1.13,13.26.67,7.93,1.34,15.87,2.21,23.81l2.94-37.77h3.58c-.09,1.07-.16,2.14-.27,3.2q-1.94,19.21-3.89,38.42c-.05.51-.07.92-.77.9-1.42,0-2.83,0-4.39,0L144.26,26h-.16l-2.91,37.21h-5.08Z"/><path d="M180.54,63.27h-3.27V20.74c1.69,0,3.35,0,5,0,.22,0,.58.41.61.66.84,6.23,1.63,12.47,2.44,18.71.72,5.58,1.45,11.16,2.35,16.74V20.82H191V63.25H185.6l-4.86-37.5-.2,0Z"/><path d="M24,63.23V20.81c.33,0,.65-.08,1-.07,2.8,0,5.6,0,8.39.19,2.44.18,3.63,1.33,3.73,3.74.17,4.21.2,8.43.08,12.65-.07,2.36-1,3.14-3.33,3.6l-.81.14c.14.09.19.15.25.16,3.39.47,4.16,1.33,4.15,4.74,0,4.33,0,8.66-.1,13-.09,2.82-1.2,4-4,4.24C30.28,63.39,27.18,63.23,24,63.23ZM27.94,60c.87,0,1.67,0,2.46,0,2.42-.08,3.12-.79,3.13-3.19,0-2.87,0-5.75,0-8.63,0-1,0-2,0-3.05A2,2,0,0,0,31.57,43c-1.18-.1-2.38,0-3.63,0Zm0-20.41c1,0,1.9,0,2.8,0,1.63,0,2.53-.75,2.57-2.35.09-3.56.06-7.13,0-10.69a2,2,0,0,0-1.71-2.21c-1.2-.17-2.41-.2-3.67-.3Z"/><path d="M69.49,41.13c.83.15,1.37.22,1.89.34a3,3,0,0,1,2.59,3c.07,3.78.06,7.56.07,11.35,0,2.43,0,4.86,0,7.38H70.19v-1.3q0-7.86,0-15.71c0-2.67-.68-3.34-3.37-3.36H64.56V63.22H60.69V20.73c.83,0,1.66,0,2.48,0,2.22,0,4.44,0,6.65.17,2.79.25,3.87,1.31,4,4.09.15,4,.15,8.07,0,12.1-.08,2.66-.9,3.39-3.52,3.87ZM64.6,39.58c.93,0,1.8,0,2.66,0,1.76,0,2.64-.71,2.69-2.47.1-3.56.05-7.13,0-10.7a2,2,0,0,0-1.8-2.13c-1.17-.16-2.35-.17-3.57-.25Z"/><path d="M97.35,42.06c0-4.95-.07-9.9,0-14.84a8.72,8.72,0,0,1,1-4c1.62-2.87,4.49-2.84,7.31-2.6a5.11,5.11,0,0,1,5,4.34,13.4,13.4,0,0,1,.35,2.91c0,9.42.06,18.85,0,28.27,0,6.42-3.21,7.82-8.62,7.23-3.28-.36-5-2.52-5-6.18-.08-5.06,0-10.11,0-15.17Zm9.8,0c0-4.62,0-9.24,0-13.85a10.81,10.81,0,0,0-.16-2.06c-.38-1.94-1.19-2.52-3.23-2.4-1.54.09-2.32.95-2.49,2.75,0,.32,0,.65,0,1q0,14.56,0,29.12a8.17,8.17,0,0,0,.08,1.41,2.86,2.86,0,0,0,5.63.07,10.87,10.87,0,0,0,.19-2.06C107.16,51.36,107.16,46.71,107.16,42.05Z"/><path d="M398.84,62.74V20.44c3.29,0,6.52-.15,9.73.05A3.3,3.3,0,0,1,411.88,24c.15,4.21.2,8.43.09,12.65-.06,2.48-1,3.28-3.43,3.74l-.69.11c.11.1.15.17.2.17,3.28.37,4.16,1.32,4.16,4.62,0,4.36,0,8.73-.09,13.09-.08,2.82-1.25,4.09-4.07,4.27C405,62.89,402,62.74,398.84,62.74Zm3.92-20.32V59.48c1,0,1.89,0,2.8,0,2-.11,2.73-.84,2.77-2.86s0-4.07,0-6.11c0-1.82,0-3.64,0-5.46s-.73-2.49-2.41-2.61C404.91,42.36,403.89,42.42,402.76,42.42Zm0-3.33c1,0,1.86,0,2.73,0,1.7,0,2.59-.74,2.63-2.4.09-3.53.06-7.05,0-10.58a2.08,2.08,0,0,0-1.77-2.29c-1.17-.17-2.36-.19-3.6-.28Z"/><path d="M435.5,62.75V20.13c3.32.11,6.59.08,9.83.38,2.16.2,3.19,1.49,3.24,3.71.1,4.07.16,8.15.06,12.22-.07,2.81-.86,3.53-3.6,4l-.5.12c3.94.88,4.33,1.36,4.32,5.38s0,8.22,0,12.33c-.06,2.91-1.27,4.26-4.16,4.42S438.61,62.75,435.5,62.75Zm3.89-3.3c1.15,0,2.17.07,3.17,0,1.63-.14,2.31-.79,2.36-2.42.09-2.94.06-5.89.06-8.83q0-1.91-.09-3.81a1.86,1.86,0,0,0-1.7-1.85,31.05,31.05,0,0,0-3.81,0Zm0-35.9V39.08h1.95c2.7,0,3.42-.71,3.44-3.42,0-2.95,0-5.89,0-8.84,0-.25,0-.51,0-.76-.15-1.53-.7-2.16-2.22-2.35C441.57,23.59,440.55,23.6,439.43,23.55Z"/><path d="M325.41,20.45c3.29,0,6.52-.16,9.73.06,2.22.15,3.31,1.59,3.35,3.87q.1,5.95,0,11.9c0,2.78-.86,3.68-3.57,4.19l-.49.1c.12.09.16.15.21.15,3.2.39,4.06,1.35,4.07,4.59q0,5.95,0,11.9c0,.33,0,.66,0,1-.1,2.89-1.22,4.32-4.09,4.51-3,.2-6.09,0-9.22,0Zm3.78,39c1.23,0,2.32.09,3.39,0,1.52-.15,2.21-.87,2.22-2.32q.05-6.22,0-12.44a2,2,0,0,0-2.09-2.2c-.87-.09-1.74,0-2.61-.1s-.94.23-.93.94c0,3.42,0,6.84,0,10.26C329.19,55.48,329.19,57.41,329.19,59.43Zm0-20.35c1.08,0,2,0,3,0a2.21,2.21,0,0,0,2.47-2.31c.1-1.19.08-2.39.08-3.59,0-2.4,0-4.79-.06-7.19-.05-1.5-.64-2.07-2.13-2.27-.79-.11-1.59-.07-2.39-.13s-1,.21-.94.93c0,2,0,4,0,6C329.19,33.29,329.19,36.08,329.19,39.08Z"/><path d="M362.08,41.54c0-5.09,0-10.18,0-15.27a6,6,0,0,1,2-4.87c2.82-2.34,8.94-1.64,10.53,1.32a7.83,7.83,0,0,1,.94,3.52q.11,15.27,0,30.54c0,4-2.18,6.11-6.15,6.22a12.29,12.29,0,0,1-2.5-.1c-3.13-.56-4.82-2.57-4.86-5.88-.05-5.16,0-10.33,0-15.49Zm9.66.06q0-7.15,0-14.3c0-.4,0-.8,0-1.2-.14-2.11-1-2.94-3.14-2.86a2.2,2.2,0,0,0-2.42,1.9A7.7,7.7,0,0,0,366,27q0,14.52,0,29a10.52,10.52,0,0,0,.08,1.52,2.46,2.46,0,0,0,2.65,2.36,2.58,2.58,0,0,0,3-2.57,14.15,14.15,0,0,0,.05-1.53Q371.74,48.69,371.74,41.59Z"/><path d="M476,62.76h-3.79V20.33H476Z"/></g><g class="cls-1"><path d="M373.8,103.24c1.11,0,2.09,0,3.06,0,.24,0,.6.47.62.75.41,4.49.77,9,1.14,13.48.66,7.79,1.32,15.57,2.14,23.36l3-37.62c1.48,0,2.85,0,4.22,0,.23,0,.61.46.63.73.4,4.42.76,8.84,1.13,13.26.67,7.93,1.34,15.87,2.21,23.81l2.94-37.77h3.58c-.09,1.07-.16,2.14-.27,3.2q-1.94,19.21-3.89,38.42c-.05.51-.07.92-.77.9-1.42,0-2.83,0-4.39,0l-2.92-37.3h-.16l-2.91,37.21H378.1Z"/><path d="M422.53,145.77h-3.27V103.24c1.69,0,3.35,0,5,0,.22,0,.58.41.61.66.84,6.23,1.63,12.47,2.44,18.71.72,5.58,1.45,11.16,2.35,16.74V103.32H433v42.43h-5.39l-4.86-37.5-.2,0Z"/><path d="M266,145.73V103.31c.33,0,.65-.08,1-.07,2.8,0,5.6,0,8.39.19,2.44.18,3.63,1.33,3.73,3.74.17,4.21.2,8.43.08,12.65-.07,2.36-1,3.14-3.33,3.6l-.81.14c.14.09.19.15.25.16,3.39.47,4.16,1.33,4.15,4.74,0,4.33,0,8.66-.1,13-.09,2.82-1.2,4-4,4.24C272.27,145.89,269.17,145.73,266,145.73Zm3.94-3.23c.87,0,1.67,0,2.46,0,2.42-.08,3.12-.79,3.13-3.19,0-2.87,0-5.75,0-8.63,0-1,0-2,0-3.05a2,2,0,0,0-1.92-2.15c-1.18-.1-2.38,0-3.63,0Zm0-20.41c1,0,1.9,0,2.8,0,1.63,0,2.53-.75,2.57-2.35.09-3.56.06-7.13,0-10.69a2,2,0,0,0-1.71-2.21c-1.2-.17-2.41-.2-3.67-.3Z"/><path d="M140.46,145.74v-42.3c3.29,0,6.52-.15,9.73.05a3.3,3.3,0,0,1,3.31,3.55c.15,4.21.2,8.43.09,12.65-.06,2.48-1,3.28-3.43,3.74l-.69.11c.11.1.15.17.2.17,3.28.37,4.16,1.32,4.16,4.62,0,4.36,0,8.73-.09,13.09-.08,2.82-1.25,4.09-4.07,4.27C146.64,145.89,143.58,145.74,140.46,145.74Zm3.92-20.32v17.06c1,0,1.89,0,2.8,0,2-.11,2.73-.84,2.77-2.86s0-4.07,0-6.11c0-1.82,0-3.64,0-5.46s-.73-2.49-2.41-2.61C146.52,125.36,145.5,125.42,144.38,125.42Zm0-3.33c1,0,1.86,0,2.73,0,1.7,0,2.59-.74,2.63-2.4.09-3.53.06-7.05,0-10.58A2.08,2.08,0,0,0,148,106.8c-1.17-.17-2.36-.19-3.6-.28Z"/><path d="M177.12,145.75V103.13c3.32.11,6.59.08,9.83.38,2.16.2,3.19,1.49,3.24,3.71.1,4.07.16,8.15.06,12.22-.07,2.81-.86,3.53-3.6,4l-.5.12c3.94.88,4.33,1.36,4.32,5.38s0,8.22,0,12.33c-.06,2.91-1.27,4.26-4.16,4.42S180.23,145.75,177.12,145.75Zm3.89-3.3c1.15,0,2.17.07,3.17,0,1.63-.14,2.31-.79,2.36-2.42.09-2.94.06-5.89.06-8.83q0-1.91-.09-3.81a1.86,1.86,0,0,0-1.7-1.85,31.05,31.05,0,0,0-3.81,0Zm0-35.9v15.54H183c2.7,0,3.42-.71,3.44-3.42,0-2.95,0-5.89,0-8.84,0-.25,0-.51,0-.76-.15-1.53-.7-2.16-2.22-2.35C183.19,106.59,182.17,106.6,181.05,106.55Z"/><path d="M67,103.45c3.29,0,6.52-.16,9.73.06,2.22.15,3.31,1.59,3.35,3.87q.1,5.95,0,11.9c0,2.78-.86,3.68-3.57,4.19l-.49.1c.12.09.16.15.21.15,3.2.39,4.06,1.35,4.07,4.59q0,5.95,0,11.9c0,.33,0,.66,0,1-.1,2.89-1.22,4.32-4.09,4.51-3,.2-6.09,0-9.22,0Zm3.78,39c1.23,0,2.32.09,3.39,0,1.52-.15,2.21-.87,2.22-2.32q.05-6.22,0-12.44a2,2,0,0,0-2.09-2.2c-.87-.09-1.74,0-2.61-.1s-.94.23-.93.94c0,3.42,0,6.84,0,10.26C70.8,138.48,70.8,140.41,70.8,142.43Zm0-20.35c1.08,0,2,0,3,0a2.21,2.21,0,0,0,2.47-2.31c.1-1.19.08-2.39.08-3.59,0-2.4,0-4.79-.06-7.19-.05-1.5-.64-2.07-2.13-2.27-.79-.11-1.59-.07-2.39-.13s-1,.21-.94.93c0,2,0,4,0,6C70.8,116.29,70.8,119.08,70.8,122.08Z"/><path d="M311.48,123.63c.83.15,1.37.22,1.89.34a3,3,0,0,1,2.59,3c.07,3.78.06,7.56.07,11.35,0,2.43,0,4.86,0,7.38h-3.86v-1.3q0-7.86,0-15.71c0-2.67-.68-3.34-3.37-3.36h-2.26v20.36h-3.87V103.23c.83,0,1.66,0,2.48,0,2.22,0,4.44,0,6.65.17,2.79.25,3.87,1.31,4,4.09.15,4,.15,8.07,0,12.1-.08,2.66-.9,3.39-3.52,3.87Zm-4.89-1.55c.93,0,1.8,0,2.66,0,1.76,0,2.64-.71,2.69-2.47.1-3.56.05-7.13,0-10.7a2,2,0,0,0-1.8-2.13c-1.17-.16-2.35-.17-3.57-.25Z"/><path d="M339.34,124.56c0-4.95-.07-9.9,0-14.84a8.72,8.72,0,0,1,1-4c1.62-2.87,4.49-2.84,7.31-2.6a5.11,5.11,0,0,1,5,4.34,13.4,13.4,0,0,1,.35,2.91c0,9.42.06,18.85,0,28.27,0,6.42-3.21,7.82-8.62,7.23-3.28-.36-5-2.52-5-6.18-.08-5.06,0-10.11,0-15.17Zm9.8,0c0-4.62,0-9.24,0-13.85a10.81,10.81,0,0,0-.16-2.06c-.38-1.94-1.19-2.52-3.23-2.4-1.54.09-2.32.95-2.49,2.75,0,.32,0,.65,0,1q0,14.56,0,29.12a8.17,8.17,0,0,0,.08,1.41,2.86,2.86,0,0,0,5.63.07,10.87,10.87,0,0,0,.19-2.06C349.15,133.86,349.15,129.21,349.15,124.55Z"/><path d="M103.7,124.54c0-5.09,0-10.18,0-15.27a6,6,0,0,1,2-4.87c2.82-2.34,8.94-1.64,10.53,1.32a7.83,7.83,0,0,1,.94,3.52q.11,15.27,0,30.54c0,4-2.18,6.11-6.15,6.22a12.29,12.29,0,0,1-2.5-.1c-3.13-.56-4.82-2.57-4.86-5.88-.05-5.16,0-10.33,0-15.49Zm9.66.06q0-7.15,0-14.3c0-.4,0-.8,0-1.2-.14-2.11-1-2.94-3.14-2.86a2.2,2.2,0,0,0-2.42,1.9,7.7,7.7,0,0,0-.2,1.83q0,14.52,0,29a10.52,10.52,0,0,0,.08,1.52,2.46,2.46,0,0,0,2.65,2.36,2.58,2.58,0,0,0,3-2.57,14.15,14.15,0,0,0,.05-1.53Q113.36,131.69,113.36,124.59Z"/><path d="M217.62,145.76h-3.79V103.33h3.79Z"/></g></svg>