<svg xmlns="http://www.w3.org/2000/svg" viewBox="0 0 837.93 98.53"><defs><style>.cls-1{fill:#fff;}</style></defs><title>Logo</title><g id="Layer_2" data-name="Layer 2"><g id="Layer_1-2" data-name="Layer 1"><path class="cls-1" d="M702.45.54c2.55,0,4.79-.11,7,.08.54,0,1.37,1.08,1.43,1.71.93,10.28,1.75,20.58,2.62,30.87,1.5,17.83,3,35.66,4.89,53.49L725.28.54c3.38,0,6.53-.08,9.67.08.53,0,1.4,1,1.45,1.67.93,10.12,1.74,20.24,2.59,30.37,1.53,18.17,3.06,36.34,5.07,54.53L750.79.7H759c-.2,2.46-.37,4.9-.62,7.33q-4.45,44-8.9,88c-.12,1.16-.17,2.1-1.77,2.06-3.24-.09-6.49,0-10.06,0L731,12.63h-.36l-6.67,85.2H712.29Z"/><path class="cls-1" d="M814,97.94h-7.48V.54c3.86,0,7.67-.06,11.47.07.5,0,1.32.94,1.4,1.52C821.32,16.4,823.15,30.69,825,45c1.66,12.78,3.33,25.56,5.39,38.32V.73h7.55V97.89H825.6L814.47,12l-.46,0Z"/><path class="cls-1" d="M455.58,97.83V.7c.76-.06,1.48-.17,2.19-.16,6.41.11,12.83,0,19.22.44,5.58.41,8.31,3,8.54,8.57.39,9.64.45,19.31.17,29-.15,5.39-2.28,7.2-7.63,8.24-.55.11-1.11.19-1.85.32.33.21.44.35.57.36,7.77,1.08,9.52,3,9.5,10.86,0,9.91.11,19.83-.22,29.73-.21,6.45-2.75,9.26-9.11,9.7C469.95,98.21,462.86,97.83,455.58,97.83Zm9-7.4c2,0,3.82,0,5.64,0,5.53-.18,7.15-1.81,7.18-7.29,0-6.58,0-13.17,0-19.75,0-2.33.08-4.67-.1-7-.22-2.92-1.71-4.68-4.4-4.91s-5.45-.05-8.32-.05Zm-.05-46.74c2.28,0,4.35,0,6.42,0,3.73-.11,5.79-1.72,5.88-5.38.21-8.16.14-16.33,0-24.49,0-2.49-1.14-4.66-3.92-5.07s-5.52-.46-8.41-.68Z"/><path class="cls-1" d="M168.14,97.86V1c7.52,0,14.92-.34,22.28.12,4.78.3,7.41,3.28,7.57,8.13.33,9.65.46,19.31.22,29-.14,5.68-2.25,7.52-7.86,8.57-.47.09-1,.15-1.57.24.26.23.35.38.46.39,7.51.84,9.52,3,9.52,10.58,0,10,.1,20-.19,30-.19,6.46-2.87,9.36-9.32,9.77C182.29,98.21,175.29,97.86,168.14,97.86Zm9-46.54V90.39c2.26,0,4.34.1,6.4,0,4.61-.26,6.25-1.92,6.34-6.56s0-9.33,0-14c0-4.17.07-8.33,0-12.49-.1-4-1.68-5.7-5.53-6C182,51.2,179.69,51.33,177.12,51.33Zm-.05-7.63c2.26,0,4.25,0,6.25,0,3.89-.11,5.92-1.69,6-5.51.21-8.07.14-16.15,0-24.23,0-2.59-1.17-4.82-4-5.24-2.67-.39-5.4-.44-8.25-.64Z"/><path class="cls-1" d="M252.08,97.9V.3c7.6.26,15.09.18,22.51.88,4.95.46,7.3,3.42,7.43,8.5.24,9.32.36,18.66.13,28-.16,6.44-2,8.08-8.25,9.21-.31.06-.62.14-1.16.27,9,2,9.9,3.12,9.89,12.32,0,9.41.08,18.83-.11,28.24-.13,6.65-2.9,9.75-9.52,10.11C266.12,98.19,259.2,97.9,252.08,97.9Zm8.9-7.57c2.63,0,5,.16,7.27,0,3.73-.32,5.3-1.82,5.41-5.55.19-6.74.14-13.48.14-20.22q0-4.37-.2-8.73a4.25,4.25,0,0,0-3.89-4.24,71.11,71.11,0,0,0-8.72-.09Zm.11-82.21V43.7h4.46c6.19,0,7.84-1.62,7.87-7.83,0-6.75,0-13.5,0-20.25,0-.58,0-1.17-.06-1.75-.34-3.51-1.6-5-5.08-5.38C266,8.21,263.64,8.24,261.09,8.12Z"/><path class="cls-1" d="M0,1c7.53,0,14.94-.38,22.29.13C27.36,1.51,29.86,4.81,30,10q.24,13.62.08,27.24c-.07,6.36-2,8.42-8.18,9.6l-1.12.23c.27.2.36.34.47.35,7.34.89,9.3,3.1,9.31,10.51q0,13.62,0,27.24c0,.75,0,1.5,0,2.25-.22,6.63-2.8,9.9-9.36,10.33-7,.45-14,.1-21.12.1ZM8.64,90.3c2.81,0,5.31.2,7.77,0,3.49-.35,5.06-2,5.09-5.32q.13-14.25,0-28.49c0-3.06-1.7-4.73-4.78-5-2-.2-4-.08-6-.22-1.65-.12-2.14.54-2.13,2.16.07,7.83,0,15.66,0,23.5C8.64,81.24,8.64,85.65,8.64,90.3Zm0-46.61c2.47,0,4.62.06,6.76,0,3.62-.13,5.36-1.7,5.65-5.3.22-2.73.19-5.48.19-8.22,0-5.49,0-11-.15-16.45C21,10.28,19.64,9,16.23,8.5c-1.8-.25-3.65-.16-5.47-.31-1.62-.14-2.18.48-2.15,2.12.09,4.57,0,9.14,0,13.72C8.64,30.42,8.64,36.81,8.64,43.69Z"/><path class="cls-1" d="M559.75,47.24c1.9.33,3.13.49,4.33.77,3.75.86,5.85,3.12,5.93,7,.16,8.66.13,17.32.16,26,0,5.57,0,11.14,0,16.89h-8.83v-3q0-18,0-36c0-6.11-1.55-7.65-7.71-7.7-1.64,0-3.29,0-5.17,0V97.81h-8.87V.53c1.91,0,3.79,0,5.67,0,5.08.09,10.18-.08,15.22.38,6.4.58,8.86,3,9.09,9.35.33,9.23.34,18.48.08,27.72-.18,6.09-2.06,7.77-8.07,8.86C561.2,46.92,560.82,47,559.75,47.24Zm-11.2-3.55c2.13,0,4.11,0,6.09,0,4-.08,6-1.62,6.15-5.64.23-8.16.13-16.33,0-24.49,0-2.61-1.41-4.51-4.12-4.88s-5.38-.4-8.17-.58Z"/><path class="cls-1" d="M623.55,49.36c0-11.33-.15-22.67.1-34a20,20,0,0,1,2.2-9.06c3.71-6.58,10.28-6.5,16.74-6s10.09,3.79,11.49,9.95a30.69,30.69,0,0,1,.81,6.67c.06,21.58.14,43.16,0,64.74-.1,14.71-7.35,17.9-19.74,16.55-7.51-.82-11.39-5.77-11.52-14.15-.17-11.58,0-23.16,0-34.74Zm22.44,0c0-10.57,0-21.15,0-31.72a24.75,24.75,0,0,0-.36-4.71c-.88-4.45-2.73-5.77-7.38-5.51-3.52.2-5.32,2.18-5.7,6.29-.07.74,0,1.5,0,2.25q0,33.34,0,66.69a18.71,18.71,0,0,0,.18,3.23c.67,3.78,2.56,5.39,6.26,5.47,3.88.09,5.86-1.44,6.62-5.31a24.9,24.9,0,0,0,.43-4.71C646,70.67,646,60,646,49.35Z"/><path class="cls-1" d="M84,49.31c0-11.66-.07-23.31,0-35,0-4.26,1.12-8.25,4.62-11.15,6.46-5.35,20.46-3.74,24.11,3a17.93,17.93,0,0,1,2.15,8.07q.24,35,.05,69.93c0,9.13-5,14-14.07,14.25a28.13,28.13,0,0,1-5.72-.22C88,97,84.1,92.34,84,84.78,83.9,73,84,61.13,84,49.31Zm22.12.13q0-16.37,0-32.75c0-.92,0-1.83-.05-2.75-.31-4.84-2.4-6.73-7.2-6.55-3.21.12-4.77,1.27-5.54,4.35a17.63,17.63,0,0,0-.45,4.2q0,33.25,0,66.5A24.08,24.08,0,0,0,93,85.94c.52,3.56,2.47,5.25,6.06,5.39,4.12.17,6.43-1.78,6.88-5.89a32.41,32.41,0,0,0,.12-3.5Q106.1,65.7,106.09,49.45Z"/><path class="cls-1" d="M344.82,97.9h-8.67V.74h8.67Z"/></g></g></svg>