<?xml version="1.0" encoding="utf-8"?>
<!-- Generator: Adobe Illustrator 21.1.0, SVG Export Plug-In . SVG Version: 6.00 Build 0)  -->
<svg version="1.1" id="Layer_1" xmlns="http://www.w3.org/2000/svg" xmlns:xlink="http://www.w3.org/1999/xlink" x="0px" y="0px"
	 viewBox="0 0 479.6 230.2" style="enable-background:new 0 0 479.6 230.2;" xml:space="preserve">
<style type="text/css">
	.st0{opacity:0.2;}
</style>
<image style="display:none;overflow:visible;opacity:0.37;" width="1502" height="1127" xlink:href="../../../../Library/Containers/com.apple.mail/Data/Library/Mail Downloads/708EAE31-73FF-444B-B5FB-117F91C7035B/background.pptx.png"  transform="matrix(1.2224 0 0 1.2224 -434.4682 -853.7733)">
</image>
<title>mono</title>
<g class="st0">
	<path d="M417.4,76.6V50.9c2,0,4-0.1,5.9,0c1.1,0,2,0.9,2,2c0,0.1,0,0.1,0,0.2c0.1,2.6,0.1,5.1,0.1,7.7c0,1.5-0.6,2-2.1,2.3
		l-0.4,0.1c0.1,0.1,0.1,0.1,0.1,0.1c2,0.2,2.5,0.8,2.5,2.8c0,2.6,0,5.3-0.1,7.9c0,1.7-0.8,2.5-2.5,2.6
		C421.2,76.7,419.3,76.6,417.4,76.6z M419.8,64.3v10.3c0.6,0,1.1,0,1.7,0c1.2-0.1,1.7-0.5,1.7-1.7c0-1.2,0-2.5,0-3.7
		c0-1.1,0-2.2,0-3.3s-0.4-1.5-1.5-1.6C421.1,64.2,420.5,64.3,419.8,64.3z M419.8,62.2c0.6,0,1.1,0,1.7,0c1,0,1.6-0.4,1.6-1.5
		c0.1-2.1,0-4.3,0-6.4c0.1-0.7-0.4-1.3-1.1-1.4c-0.7-0.1-1.4-0.1-2.2-0.2L419.8,62.2z"/>
	<path d="M439.7,76.6V50.7c2,0.1,4,0,6,0.2c1.3,0.1,1.9,0.9,2,2.3c0.1,2.5,0.1,4.9,0,7.4c0,1.7-0.5,2.1-2.2,2.4l-0.3,0.1
		c2.4,0.5,2.6,0.8,2.6,3.3c0,2.4,0,5,0,7.5c0,1.8-0.8,2.6-2.5,2.7C443.5,76.7,441.6,76.6,439.7,76.6z M442,74.6c0.7,0,1.3,0,1.9,0
		c1-0.1,1.4-0.5,1.4-1.5c0.1-1.8,0-3.6,0-5.4c0-0.8,0-1.5-0.1-2.3c0-0.6-0.4-1.1-1-1.1c-0.8,0-1.5,0-2.3,0L442,74.6z M442,52.8v9.4
		h1.2c1.6,0,2.1-0.4,2.1-2.1c0-1.8,0-3.6,0-5.4c0-0.2,0-0.3,0-0.5c-0.1-0.9-0.4-1.3-1.3-1.4C443.4,52.8,442.7,52.8,442,52.8
		L442,52.8z"/>
	<path d="M372.9,50.9c2,0,4-0.1,5.9,0c1.3,0.1,2,1,2,2.3c0,2.4,0,4.8,0,7.2c0,1.7-0.5,2.2-2.2,2.5l-0.3,0.1c0.1,0.1,0.1,0.1,0.1,0.1
		c1.9,0.2,2.5,0.8,2.5,2.8c0,2.4,0,4.8,0,7.2c0,0.2,0,0.4,0,0.6c-0.1,1.8-0.7,2.6-2.5,2.7c-1.8,0.1-3.7,0-5.6,0L372.9,50.9z
		 M375.2,74.6c0.7,0,1.4,0.1,2.1,0c0.9-0.1,1.3-0.5,1.3-1.4c0-2.5,0-5,0-7.5c0.1-0.7-0.4-1.3-1.1-1.3c-0.1,0-0.1,0-0.2,0
		c-0.5-0.1-1.1,0-1.6-0.1s-0.6,0.1-0.6,0.6c0,2.1,0,4.1,0,6.2C375.2,72.2,375.2,73.4,375.2,74.6L375.2,74.6z M375.2,62.2
		c0.7,0,1.2,0,1.8,0c0.7,0.1,1.4-0.4,1.5-1.2c0-0.1,0-0.2,0-0.2c0.1-0.7,0-1.4,0-2.2c0-1.5,0-2.9,0-4.4c0-0.9-0.4-1.3-1.3-1.4
		c-0.5-0.1-1,0-1.4-0.1c-0.5,0-0.6,0.1-0.6,0.6c0,1.2,0,2.4,0,3.6C375.2,58.7,375.2,60.4,375.2,62.2L375.2,62.2z"/>
	<path d="M395.1,63.7c0-3.1,0-6.2,0-9.3c-0.1-1.1,0.4-2.2,1.2-3c1.7-1.4,5.4-1,6.4,0.8c0.4,0.7,0.6,1.4,0.6,2.1c0,6.2,0,12.3,0,18.5
		c0,2.4-1.3,3.7-3.7,3.8c-0.5,0-1,0-1.5-0.1c-1.9-0.3-2.9-1.6-2.9-3.6C395.1,70,395.1,66.9,395.1,63.7L395.1,63.7z M401,63.8
		c0-2.9,0-5.8,0-8.7c0-0.2,0-0.5,0-0.7c-0.1-1.3-0.6-1.8-1.9-1.7c-0.7-0.1-1.4,0.4-1.5,1.2c-0.1,0.4-0.1,0.7-0.1,1.1
		c0,5.9,0,11.7,0,17.6c0,0.3,0,0.6,0,0.9c0,0.8,0.7,1.5,1.5,1.4c0,0,0,0,0.1,0c0.9,0.1,1.7-0.4,1.8-1.3c0-0.1,0-0.2,0-0.3
		c0-0.3,0-0.6,0-0.9C401,69.5,401,66.6,401,63.8L401,63.8z"/>
	<path d="M464.2,76.6h-2.3V50.9h2.3V76.6z"/>
</g>
<g class="st0">
	<path d="M314.9,159.8c0.7,0,1.3,0,1.9,0c0.1,0,0.4,0.3,0.4,0.5c0.2,2.7,0.5,5.5,0.7,8.2c0.4,4.7,0.8,9.4,1.3,14.2l1.8-22.8
		c0.9,0,1.7,0,2.6,0c0.1,0,0.4,0.3,0.4,0.4c0.2,2.7,0.5,5.4,0.7,8c0.4,4.8,0.8,9.6,1.3,14.4l1.8-22.9h2.2c-0.1,0.6-0.1,1.3-0.2,1.9
		c-0.8,7.8-1.6,15.5-2.4,23.3c0,0.3,0,0.6-0.5,0.5c-0.9,0-1.7,0-2.7,0l-1.8-22.6h-0.1l-1.8,22.6h-3.1L314.9,159.8z"/>
	<path d="M344.4,185.5h-2v-25.8c1,0,2,0,3,0c0.1,0,0.4,0.2,0.4,0.4c0.5,3.8,1,7.6,1.5,11.3c0.4,3.4,0.9,6.8,1.4,10.2v-21.9h2v25.7
		h-3.3l-2.9-22.7h-0.1L344.4,185.5z"/>
	<path d="M249.5,185.5v-25.7c0.2,0,0.4,0,0.6,0c1.7,0,3.4,0,5.1,0.1c1.5,0.1,2.2,0.8,2.3,2.3c0.1,2.6,0.1,5.1,0,7.7
		c0,1.4-0.6,1.9-2,2.2l-0.5,0.1c0.1,0.1,0.1,0.1,0.2,0.1c2.1,0.3,2.5,0.8,2.5,2.9c0,2.6,0,5.3-0.1,7.9c-0.1,1.7-0.7,2.4-2.4,2.6
		C253.3,185.6,251.4,185.5,249.5,185.5z M251.9,183.6c0.5,0,1,0,1.5,0c1.5,0,1.9-0.5,1.9-1.9c0-1.7,0-3.5,0-5.2c0-0.6,0-1.2,0-1.9
		c0.1-0.7-0.4-1.3-1.1-1.3c0,0,0,0,0,0c-0.7-0.1-1.4,0-2.2,0L251.9,183.6z M251.9,171.2c0.6,0,1.2,0,1.7,0c1,0,1.5-0.5,1.6-1.4
		c0.1-2.2,0-4.3,0-6.5c0.1-0.7-0.4-1.2-1-1.3c-0.7-0.1-1.5-0.1-2.2-0.2L251.9,171.2z"/>
	<path d="M173.3,185.5v-25.7c2,0,4-0.1,5.9,0c1.1,0,2,0.9,2,2c0,0.1,0,0.1,0,0.2c0.1,2.6,0.1,5.1,0.1,7.7c0,1.5-0.6,2-2.1,2.3
		l-0.4,0.1c0.1,0.1,0.1,0.1,0.1,0.1c2,0.2,2.5,0.8,2.5,2.8c0,2.6,0,5.3-0.1,7.9c0,1.7-0.8,2.5-2.5,2.6
		C177.1,185.6,175.2,185.5,173.3,185.5z M175.7,173.2v10.3c0.6,0,1.1,0,1.7,0c1.2-0.1,1.7-0.5,1.7-1.7c0-1.2,0-2.5,0-3.7
		c0-1.1,0-2.2,0-3.3s-0.4-1.5-1.5-1.6C177,173.2,176.4,173.2,175.7,173.2z M175.7,171.2c0.6,0,1.1,0,1.7,0c1,0,1.6-0.4,1.6-1.5
		c0.1-2.1,0-4.3,0-6.4c0.1-0.7-0.4-1.3-1.1-1.4c-0.7-0.1-1.4-0.1-2.2-0.2L175.7,171.2z"/>
	<path d="M195.6,185.5v-25.9c2,0.1,4,0,6,0.2c1.3,0.1,1.9,0.9,2,2.3c0.1,2.5,0.1,4.9,0,7.4c0,1.7-0.5,2.1-2.2,2.4l-0.3,0.1
		c2.4,0.5,2.6,0.8,2.6,3.3c0,2.4,0,5,0,7.5c0,1.8-0.8,2.6-2.5,2.7C199.4,185.6,197.5,185.5,195.6,185.5z M197.9,183.5
		c0.7,0,1.3,0,1.9,0c1-0.1,1.4-0.5,1.4-1.5c0.1-1.8,0-3.6,0-5.4c0-0.8,0-1.5-0.1-2.3c0-0.6-0.4-1.1-1-1.1c-0.8,0-1.5,0-2.3,0
		L197.9,183.5z M197.9,161.8v9.4h1.2c1.6,0,2.1-0.4,2.1-2.1c0-1.8,0-3.6,0-5.4c0-0.2,0-0.3,0-0.5c-0.1-0.9-0.4-1.3-1.3-1.4
		C199.3,161.8,198.6,161.8,197.9,161.8L197.9,161.8z"/>
	<path d="M128.8,159.9c2,0,4-0.1,5.9,0c1.3,0.1,2,1,2,2.3c0,2.4,0,4.8,0,7.2c0,1.7-0.5,2.2-2.2,2.5l-0.3,0.1
		c0.1,0.1,0.1,0.1,0.1,0.1c1.9,0.2,2.5,0.8,2.5,2.8c0,2.4,0,4.8,0,7.2c0,0.2,0,0.4,0,0.6c-0.1,1.8-0.7,2.6-2.5,2.7
		c-1.8,0.1-3.7,0-5.6,0L128.8,159.9z M131.1,183.5c0.7,0,1.4,0.1,2.1,0c0.9-0.1,1.3-0.5,1.3-1.4c0-2.5,0-5,0-7.5
		c0.1-0.7-0.4-1.3-1.1-1.3c-0.1,0-0.1,0-0.2,0c-0.5-0.1-1.1,0-1.6-0.1c-0.5-0.1-0.6,0.1-0.6,0.6c0,2.1,0,4.1,0,6.2
		C131.1,181.1,131.1,182.3,131.1,183.5L131.1,183.5z M131.1,171.2c0.7,0,1.2,0,1.8,0c0.7,0.1,1.4-0.4,1.5-1.2c0-0.1,0-0.2,0-0.2
		c0.1-0.7,0-1.4,0-2.2c0-1.5,0-2.9,0-4.4c0-0.9-0.4-1.3-1.3-1.4c-0.5-0.1-1,0-1.4-0.1s-0.6,0.1-0.6,0.6c0,1.2,0,2.4,0,3.6
		C131.1,167.7,131.1,169.4,131.1,171.2L131.1,171.2z"/>
	<path d="M277.1,172.1c0.5,0.1,0.8,0.1,1.1,0.2c0.9,0.1,1.6,0.9,1.6,1.8c0,2.3,0,4.6,0,6.9c0,1.5,0,2.9,0,4.5h-2.3v-0.8
		c0-3.2,0-6.4,0-9.5c0-1.6-0.4-2-2-2h-1.4v12.3h-2.3v-25.8c0.5,0,1,0,1.5,0c1.3,0,2.7,0,4,0.1c1.7,0.2,2.3,0.8,2.4,2.5
		c0.1,2.4,0.1,4.9,0,7.3c0,1.6-0.5,2.1-2.1,2.3L277.1,172.1z M274.1,171.2c0.6,0,1.1,0,1.6,0c1.1,0,1.6-0.4,1.6-1.5
		c0.1-2.2,0-4.3,0-6.5c0-0.7-0.4-1.2-1.1-1.3c-0.7-0.1-1.4-0.1-2.2-0.2L274.1,171.2z"/>
	<path d="M294,172.7c0-3,0-6,0-9c0-0.8,0.2-1.7,0.6-2.4c1-1.7,2.7-1.7,4.4-1.6c1.5,0,2.8,1.1,3,2.6c0.1,0.6,0.2,1.2,0.2,1.8
		c0,5.7,0,11.4,0,17.1c0,3.9-1.9,4.7-5.2,4.4c-2-0.2-3-1.5-3-3.7C294,178.8,294,175.7,294,172.7L294,172.7z M299.9,172.7
		c0-2.8,0-5.6,0-8.4c0-0.4,0-0.8-0.1-1.2c-0.2-1.2-0.7-1.5-2-1.5c-0.9,0.1-1.4,0.6-1.5,1.7c0,0.2,0,0.4,0,0.6c0,5.9,0,11.8,0,17.7
		c0,0.3,0,0.6,0,0.9c0.2,0.9,1.1,1.6,2,1.4c0.7-0.1,1.3-0.7,1.4-1.4c0.1-0.4,0.1-0.8,0.1-1.2C299.9,178.3,299.9,175.5,299.9,172.7
		L299.9,172.7z"/>
	<path d="M151,172.7c0-3.1,0-6.2,0-9.3c-0.1-1.1,0.4-2.2,1.2-3c1.7-1.4,5.4-1,6.4,0.8c0.4,0.7,0.6,1.4,0.6,2.1c0,6.2,0,12.3,0,18.5
		c0,2.4-1.3,3.7-3.7,3.8c-0.5,0-1,0-1.5-0.1c-1.9-0.3-2.9-1.6-2.9-3.6C151,178.9,151,175.8,151,172.7L151,172.7z M156.9,172.7
		c0-2.9,0-5.8,0-8.7c0-0.2,0-0.5,0-0.7c-0.1-1.3-0.6-1.8-1.9-1.7c-0.7-0.1-1.4,0.4-1.5,1.2c-0.1,0.4-0.1,0.7-0.1,1.1
		c0,5.9,0,11.7,0,17.6c0,0.3,0,0.6,0,0.9c0,0.8,0.7,1.5,1.5,1.4c0,0,0,0,0.1,0c0.9,0.1,1.7-0.4,1.8-1.3c0-0.1,0-0.2,0-0.3
		c0-0.3,0-0.6,0-0.9C156.9,178.4,156.9,175.6,156.9,172.7L156.9,172.7z"/>
	<path d="M220.1,185.5h-2.3v-25.7h2.3V185.5z"/>
</g>
<g class="st0">
	<path d="M80.1,50.8c0.7,0,1.3,0,1.9,0c0.1,0,0.4,0.3,0.4,0.5c0.2,2.7,0.5,5.5,0.7,8.2c0.4,4.7,0.8,9.4,1.3,14.2l1.8-22.8
		c0.9,0,1.7,0,2.6,0c0.1,0,0.4,0.3,0.4,0.4c0.2,2.7,0.5,5.4,0.7,8c0.4,4.8,0.8,9.6,1.3,14.4l1.8-22.9H95c-0.1,0.6-0.1,1.3-0.2,1.9
		c-0.8,7.8-1.6,15.5-2.4,23.3c0,0.3,0,0.6-0.5,0.5c-0.9,0-1.7,0-2.7,0l-1.8-22.6h-0.1l-1.8,22.6h-3.1L80.1,50.8z"/>
	<path d="M109.6,76.6h-2V50.8c1,0,2,0,3,0c0.1,0,0.4,0.2,0.4,0.4c0.5,3.8,1,7.6,1.5,11.3c0.4,3.4,0.9,6.8,1.4,10.2V50.8h2v25.7h-3.3
		l-2.9-22.7h-0.1L109.6,76.6z"/>
	<path d="M14.7,76.5V50.8c0.2,0,0.4,0,0.6,0c1.7,0,3.4,0,5.1,0.1c1.5,0.1,2.2,0.8,2.3,2.3c0.1,2.6,0.1,5.1,0,7.7
		c0,1.4-0.6,1.9-2,2.2l-0.5,0.1c0.1,0.1,0.1,0.1,0.2,0.1c2.1,0.3,2.5,0.8,2.5,2.9c0,2.6,0,5.3-0.1,7.9c-0.1,1.7-0.7,2.4-2.4,2.6
		C18.5,76.6,16.6,76.5,14.7,76.5z M17.1,74.6c0.5,0,1,0,1.5,0c1.5,0,1.9-0.5,1.9-1.9c0-1.7,0-3.5,0-5.2c0-0.6,0-1.2,0-1.9
		c0.1-0.7-0.4-1.3-1.1-1.3c0,0,0,0,0,0c-0.7-0.1-1.4,0-2.2,0L17.1,74.6z M17.1,62.2c0.6,0,1.2,0,1.7,0c1,0,1.5-0.5,1.6-1.4
		c0.1-2.2,0-4.3,0-6.5c0.1-0.7-0.4-1.2-1-1.3c-0.7-0.1-1.5-0.1-2.2-0.2L17.1,62.2z"/>
	<path d="M42.3,63.1c0.5,0.1,0.8,0.1,1.1,0.2c0.9,0.1,1.6,0.9,1.6,1.8c0,2.3,0,4.6,0,6.9c0,1.5,0,2.9,0,4.5h-2.3v-0.8
		c0-3.2,0-6.4,0-9.5c0-1.6-0.4-2-2-2h-1.4v12.3h-2.3V50.8c0.5,0,1,0,1.5,0c1.3,0,2.7,0,4,0.1c1.7,0.2,2.3,0.8,2.4,2.5
		c0.1,2.4,0.1,4.9,0,7.3c0,1.6-0.5,2.1-2.1,2.3L42.3,63.1z M39.3,62.2c0.6,0,1.1,0,1.6,0c1.1,0,1.6-0.4,1.6-1.5c0.1-2.2,0-4.3,0-6.5
		c0-0.7-0.4-1.2-1.1-1.3c-0.7-0.1-1.4-0.1-2.2-0.2L39.3,62.2z"/>
	<path d="M59.2,63.7c0-3,0-6,0-9c0-0.8,0.2-1.7,0.6-2.4c1-1.7,2.7-1.7,4.4-1.6c1.5,0,2.8,1.1,3,2.6c0.1,0.6,0.2,1.2,0.2,1.8
		c0,5.7,0,11.4,0,17.1c0,3.9-1.9,4.7-5.2,4.4c-2-0.2-3-1.5-3-3.7C59.1,69.8,59.2,66.8,59.2,63.7L59.2,63.7z M65.1,63.7
		c0-2.8,0-5.6,0-8.4c0-0.4,0-0.8-0.1-1.2c-0.2-1.2-0.7-1.5-2-1.5c-0.9,0.1-1.4,0.6-1.5,1.7c0,0.2,0,0.4,0,0.6c0,5.9,0,11.8,0,17.7
		c0,0.3,0,0.6,0,0.9c0.2,0.9,1.1,1.6,2,1.4c0.7-0.1,1.3-0.7,1.4-1.4c0.1-0.4,0.1-0.8,0.1-1.2C65.1,69.3,65.1,66.5,65.1,63.7
		L65.1,63.7z"/>
</g>
</svg>
